<?xml version="1.0"?>
<svg xmlns="http://www.w3.org/2000/svg" xmlns:xlink="http://www.w3.org/1999/xlink" xmlns:svgjs="http://svgjs.com/svgjs" version="1.1" width="512" height="512" x="0" y="0" viewBox="0 0 496 496" style="enable-background:new 0 0 512 512" xml:space="preserve" class=""><g><path xmlns="http://www.w3.org/2000/svg" d="m160 0c-88.222656 0-160 71.777344-160 160v1.039062c0 42.738282 16.648438 82.921876 46.863281 113.144532l12.394531 12.382812c32.75 32.761719 55.734376 72.746094 67.804688 116.816406-33.269531 7.074219-55.0625 24.394532-55.0625 44.617188 0 26.910156 38.65625 48 88 48s88-21.089844 88-48c0-20.214844-21.785156-37.535156-55.054688-44.625 12.070313-44.070312 35.054688-84.054688 67.808594-116.816406l12.390625-12.382813c30.207031-30.214843 46.855469-70.398437 46.855469-113.136719v-1.039062c0-88.222656-71.777344-160-160-160zm72 448c0 15.136719-29.566406 32-72 32s-72-16.863281-72-32c0-11.921875 17.976562-23.808594 42.855469-29.054688 1.007812 4.796876 2.054687 9.582032 2.808593 14.460938 2.007813 13.089844 13.089844 22.59375 26.335938 22.59375s24.328125-9.503906 26.335938-22.59375c.753906-4.878906 1.800781-9.671875 2.808593-14.46875 24.878907 5.253906 42.855469 17.152344 42.855469 29.0625zm72-286.960938c0 38.464844-14.984375 74.625-42.175781 101.832032l-12.390625 12.386718c-42.488282 42.496094-69.777344 96.335938-78.90625 155.71875-.808594 5.222657-5.230469 9.023438-10.527344 9.023438s-9.71875-3.800781-10.527344-9.03125c-9.136718-59.382812-36.417968-113.226562-78.90625-155.722656l-12.390625-12.382813c-27.191406-27.199219-42.175781-63.359375-42.175781-101.824219v-1.039062c0-79.398438 64.601562-144 144-144s144 64.601562 144 144zm0 0" fill="#00cb6f" data-original="#000000" style=""/><path xmlns="http://www.w3.org/2000/svg" d="m160 48c-61.761719 0-112 50.238281-112 112s50.238281 112 112 112 112-50.238281 112-112-50.238281-112-112-112zm0 208c-52.9375 0-96-43.0625-96-96s43.0625-96 96-96 96 43.0625 96 96-43.0625 96-96 96zm0 0" fill="#00cb6f" data-original="#000000" style=""/><path xmlns="http://www.w3.org/2000/svg" d="m120 288h16v16h-16zm0 0" fill="#00cb6f" data-original="#000000" style=""/><path xmlns="http://www.w3.org/2000/svg" d="m152 288h16v16h-16zm0 0" fill="#00cb6f" data-original="#000000" style=""/><path xmlns="http://www.w3.org/2000/svg" d="m184 288h16v16h-16zm0 0" fill="#00cb6f" data-original="#000000" style=""/></g></svg>
